<mxfile host="app.diagrams.net" modified="2021-07-12T13:29:29.974Z" agent="5.0 (Macintosh; Intel Mac OS X 10_15_7) AppleWebKit/605.1.15 (KHTML, like Gecko) Version/13.1.3 Safari/605.1.15" etag="szVgh_YSHCMo3jT0f2FP" version="14.8.5" type="github">
  <diagram id="PVRkpCmq6F19rJbKBbZH" name="Page-1">
    <mxGraphModel dx="1700" dy="1204" grid="0" gridSize="10" guides="1" tooltips="1" connect="1" arrows="1" fold="1" page="0" pageScale="1" pageWidth="3300" pageHeight="4681" math="0" shadow="0">
      <root>
        <mxCell id="0" />
        <mxCell id="1" parent="0" />
        <mxCell id="0IgKqHt7GOwVE6_uqxTF-1" value="" style="shape=table;startSize=0;container=1;collapsible=0;childLayout=tableLayout;fillColor=#1ba1e2;strokeColor=#006EAF;fontColor=#ffffff;strokeWidth=4;" vertex="1" parent="1">
          <mxGeometry x="202" y="645" width="130" height="119.75" as="geometry" />
        </mxCell>
        <mxCell id="0IgKqHt7GOwVE6_uqxTF-2" value="" style="shape=partialRectangle;collapsible=0;dropTarget=0;pointerEvents=0;fillColor=none;top=0;left=0;bottom=0;right=0;points=[[0,0.5],[1,0.5]];portConstraint=eastwest;" vertex="1" parent="0IgKqHt7GOwVE6_uqxTF-1">
          <mxGeometry width="130" height="40" as="geometry" />
        </mxCell>
        <mxCell id="0IgKqHt7GOwVE6_uqxTF-3" value="" style="shape=partialRectangle;html=1;whiteSpace=wrap;connectable=0;overflow=hidden;fillColor=none;top=0;left=0;bottom=0;right=0;" vertex="1" parent="0IgKqHt7GOwVE6_uqxTF-2">
          <mxGeometry width="43" height="40" as="geometry" />
        </mxCell>
        <mxCell id="0IgKqHt7GOwVE6_uqxTF-4" value="" style="shape=partialRectangle;html=1;whiteSpace=wrap;connectable=0;overflow=hidden;fillColor=none;top=0;left=0;bottom=0;right=0;" vertex="1" parent="0IgKqHt7GOwVE6_uqxTF-2">
          <mxGeometry x="43" width="44" height="40" as="geometry" />
        </mxCell>
        <mxCell id="0IgKqHt7GOwVE6_uqxTF-5" value="" style="shape=partialRectangle;html=1;whiteSpace=wrap;connectable=0;overflow=hidden;fillColor=none;top=0;left=0;bottom=0;right=0;" vertex="1" parent="0IgKqHt7GOwVE6_uqxTF-2">
          <mxGeometry x="87" width="43" height="40" as="geometry" />
        </mxCell>
        <mxCell id="0IgKqHt7GOwVE6_uqxTF-6" value="" style="shape=partialRectangle;collapsible=0;dropTarget=0;pointerEvents=0;fillColor=none;top=0;left=0;bottom=0;right=0;points=[[0,0.5],[1,0.5]];portConstraint=eastwest;" vertex="1" parent="0IgKqHt7GOwVE6_uqxTF-1">
          <mxGeometry y="40" width="130" height="40" as="geometry" />
        </mxCell>
        <mxCell id="0IgKqHt7GOwVE6_uqxTF-7" value="" style="shape=partialRectangle;html=1;whiteSpace=wrap;connectable=0;overflow=hidden;fillColor=none;top=0;left=0;bottom=0;right=0;" vertex="1" parent="0IgKqHt7GOwVE6_uqxTF-6">
          <mxGeometry width="43" height="40" as="geometry" />
        </mxCell>
        <mxCell id="0IgKqHt7GOwVE6_uqxTF-8" value="" style="shape=partialRectangle;html=1;whiteSpace=wrap;connectable=0;overflow=hidden;fillColor=none;top=0;left=0;bottom=0;right=0;" vertex="1" parent="0IgKqHt7GOwVE6_uqxTF-6">
          <mxGeometry x="43" width="44" height="40" as="geometry" />
        </mxCell>
        <mxCell id="0IgKqHt7GOwVE6_uqxTF-9" value="" style="shape=partialRectangle;html=1;whiteSpace=wrap;connectable=0;overflow=hidden;fillColor=none;top=0;left=0;bottom=0;right=0;" vertex="1" parent="0IgKqHt7GOwVE6_uqxTF-6">
          <mxGeometry x="87" width="43" height="40" as="geometry" />
        </mxCell>
        <mxCell id="0IgKqHt7GOwVE6_uqxTF-10" value="" style="shape=partialRectangle;collapsible=0;dropTarget=0;pointerEvents=0;fillColor=none;top=0;left=0;bottom=0;right=0;points=[[0,0.5],[1,0.5]];portConstraint=eastwest;" vertex="1" parent="0IgKqHt7GOwVE6_uqxTF-1">
          <mxGeometry y="80" width="130" height="40" as="geometry" />
        </mxCell>
        <mxCell id="0IgKqHt7GOwVE6_uqxTF-11" value="" style="shape=partialRectangle;html=1;whiteSpace=wrap;connectable=0;overflow=hidden;fillColor=none;top=0;left=0;bottom=0;right=0;" vertex="1" parent="0IgKqHt7GOwVE6_uqxTF-10">
          <mxGeometry width="43" height="40" as="geometry" />
        </mxCell>
        <mxCell id="0IgKqHt7GOwVE6_uqxTF-12" value="" style="shape=partialRectangle;html=1;whiteSpace=wrap;connectable=0;overflow=hidden;fillColor=none;top=0;left=0;bottom=0;right=0;" vertex="1" parent="0IgKqHt7GOwVE6_uqxTF-10">
          <mxGeometry x="43" width="44" height="40" as="geometry" />
        </mxCell>
        <mxCell id="0IgKqHt7GOwVE6_uqxTF-13" value="" style="shape=partialRectangle;html=1;whiteSpace=wrap;connectable=0;overflow=hidden;fillColor=none;top=0;left=0;bottom=0;right=0;" vertex="1" parent="0IgKqHt7GOwVE6_uqxTF-10">
          <mxGeometry x="87" width="43" height="40" as="geometry" />
        </mxCell>
        <mxCell id="0IgKqHt7GOwVE6_uqxTF-14" value="" style="ellipse;whiteSpace=wrap;html=1;aspect=fixed;strokeColor=#000000;strokeWidth=2;gradientColor=none;fillColor=#FF6666;" vertex="1" parent="1">
          <mxGeometry x="229" y="517" width="80" height="80" as="geometry" />
        </mxCell>
        <mxCell id="0IgKqHt7GOwVE6_uqxTF-15" value="" style="rounded=0;whiteSpace=wrap;html=1;dashed=1;strokeColor=#000000;strokeWidth=2;fillColor=none;gradientColor=none;" vertex="1" parent="1">
          <mxGeometry x="188.5" y="508" width="157" height="272" as="geometry" />
        </mxCell>
        <mxCell id="0IgKqHt7GOwVE6_uqxTF-16" value="" style="endArrow=classic;html=1;exitX=0.5;exitY=1;exitDx=0;exitDy=0;entryX=0.515;entryY=0;entryDx=0;entryDy=0;entryPerimeter=0;strokeWidth=2;" edge="1" parent="1" source="0IgKqHt7GOwVE6_uqxTF-14" target="0IgKqHt7GOwVE6_uqxTF-2">
          <mxGeometry width="50" height="50" relative="1" as="geometry">
            <mxPoint x="402" y="619" as="sourcePoint" />
            <mxPoint x="452" y="546" as="targetPoint" />
          </mxGeometry>
        </mxCell>
        <mxCell id="0IgKqHt7GOwVE6_uqxTF-17" value="" style="shape=table;startSize=0;container=1;collapsible=0;childLayout=tableLayout;fillColor=#1ba1e2;strokeColor=#006EAF;fontColor=#ffffff;strokeWidth=4;" vertex="1" parent="1">
          <mxGeometry x="373.5" y="645" width="130" height="119.75" as="geometry" />
        </mxCell>
        <mxCell id="0IgKqHt7GOwVE6_uqxTF-18" value="" style="shape=partialRectangle;collapsible=0;dropTarget=0;pointerEvents=0;fillColor=none;top=0;left=0;bottom=0;right=0;points=[[0,0.5],[1,0.5]];portConstraint=eastwest;" vertex="1" parent="0IgKqHt7GOwVE6_uqxTF-17">
          <mxGeometry width="130" height="40" as="geometry" />
        </mxCell>
        <mxCell id="0IgKqHt7GOwVE6_uqxTF-19" value="" style="shape=partialRectangle;html=1;whiteSpace=wrap;connectable=0;overflow=hidden;fillColor=none;top=0;left=0;bottom=0;right=0;" vertex="1" parent="0IgKqHt7GOwVE6_uqxTF-18">
          <mxGeometry width="43" height="40" as="geometry" />
        </mxCell>
        <mxCell id="0IgKqHt7GOwVE6_uqxTF-20" value="" style="shape=partialRectangle;html=1;whiteSpace=wrap;connectable=0;overflow=hidden;fillColor=none;top=0;left=0;bottom=0;right=0;" vertex="1" parent="0IgKqHt7GOwVE6_uqxTF-18">
          <mxGeometry x="43" width="44" height="40" as="geometry" />
        </mxCell>
        <mxCell id="0IgKqHt7GOwVE6_uqxTF-21" value="" style="shape=partialRectangle;html=1;whiteSpace=wrap;connectable=0;overflow=hidden;fillColor=none;top=0;left=0;bottom=0;right=0;" vertex="1" parent="0IgKqHt7GOwVE6_uqxTF-18">
          <mxGeometry x="87" width="43" height="40" as="geometry" />
        </mxCell>
        <mxCell id="0IgKqHt7GOwVE6_uqxTF-22" value="" style="shape=partialRectangle;collapsible=0;dropTarget=0;pointerEvents=0;fillColor=none;top=0;left=0;bottom=0;right=0;points=[[0,0.5],[1,0.5]];portConstraint=eastwest;" vertex="1" parent="0IgKqHt7GOwVE6_uqxTF-17">
          <mxGeometry y="40" width="130" height="40" as="geometry" />
        </mxCell>
        <mxCell id="0IgKqHt7GOwVE6_uqxTF-23" value="" style="shape=partialRectangle;html=1;whiteSpace=wrap;connectable=0;overflow=hidden;fillColor=none;top=0;left=0;bottom=0;right=0;" vertex="1" parent="0IgKqHt7GOwVE6_uqxTF-22">
          <mxGeometry width="43" height="40" as="geometry" />
        </mxCell>
        <mxCell id="0IgKqHt7GOwVE6_uqxTF-24" value="" style="shape=partialRectangle;html=1;whiteSpace=wrap;connectable=0;overflow=hidden;fillColor=none;top=0;left=0;bottom=0;right=0;" vertex="1" parent="0IgKqHt7GOwVE6_uqxTF-22">
          <mxGeometry x="43" width="44" height="40" as="geometry" />
        </mxCell>
        <mxCell id="0IgKqHt7GOwVE6_uqxTF-25" value="" style="shape=partialRectangle;html=1;whiteSpace=wrap;connectable=0;overflow=hidden;fillColor=none;top=0;left=0;bottom=0;right=0;" vertex="1" parent="0IgKqHt7GOwVE6_uqxTF-22">
          <mxGeometry x="87" width="43" height="40" as="geometry" />
        </mxCell>
        <mxCell id="0IgKqHt7GOwVE6_uqxTF-26" value="" style="shape=partialRectangle;collapsible=0;dropTarget=0;pointerEvents=0;fillColor=none;top=0;left=0;bottom=0;right=0;points=[[0,0.5],[1,0.5]];portConstraint=eastwest;" vertex="1" parent="0IgKqHt7GOwVE6_uqxTF-17">
          <mxGeometry y="80" width="130" height="40" as="geometry" />
        </mxCell>
        <mxCell id="0IgKqHt7GOwVE6_uqxTF-27" value="" style="shape=partialRectangle;html=1;whiteSpace=wrap;connectable=0;overflow=hidden;fillColor=none;top=0;left=0;bottom=0;right=0;" vertex="1" parent="0IgKqHt7GOwVE6_uqxTF-26">
          <mxGeometry width="43" height="40" as="geometry" />
        </mxCell>
        <mxCell id="0IgKqHt7GOwVE6_uqxTF-28" value="" style="shape=partialRectangle;html=1;whiteSpace=wrap;connectable=0;overflow=hidden;fillColor=none;top=0;left=0;bottom=0;right=0;" vertex="1" parent="0IgKqHt7GOwVE6_uqxTF-26">
          <mxGeometry x="43" width="44" height="40" as="geometry" />
        </mxCell>
        <mxCell id="0IgKqHt7GOwVE6_uqxTF-29" value="" style="shape=partialRectangle;html=1;whiteSpace=wrap;connectable=0;overflow=hidden;fillColor=none;top=0;left=0;bottom=0;right=0;" vertex="1" parent="0IgKqHt7GOwVE6_uqxTF-26">
          <mxGeometry x="87" width="43" height="40" as="geometry" />
        </mxCell>
        <mxCell id="0IgKqHt7GOwVE6_uqxTF-30" value="" style="ellipse;whiteSpace=wrap;html=1;aspect=fixed;strokeColor=#000000;strokeWidth=2;gradientColor=none;fillColor=#FF6666;" vertex="1" parent="1">
          <mxGeometry x="400.5" y="517" width="80" height="80" as="geometry" />
        </mxCell>
        <mxCell id="0IgKqHt7GOwVE6_uqxTF-31" value="" style="rounded=0;whiteSpace=wrap;html=1;dashed=1;strokeColor=#000000;strokeWidth=2;fillColor=none;gradientColor=none;" vertex="1" parent="1">
          <mxGeometry x="360" y="508" width="157" height="272" as="geometry" />
        </mxCell>
        <mxCell id="0IgKqHt7GOwVE6_uqxTF-32" value="" style="endArrow=classic;html=1;exitX=0.5;exitY=1;exitDx=0;exitDy=0;entryX=0.515;entryY=0;entryDx=0;entryDy=0;entryPerimeter=0;strokeWidth=2;" edge="1" parent="1" source="0IgKqHt7GOwVE6_uqxTF-30" target="0IgKqHt7GOwVE6_uqxTF-18">
          <mxGeometry width="50" height="50" relative="1" as="geometry">
            <mxPoint x="573.5" y="619" as="sourcePoint" />
            <mxPoint x="623.5" y="546" as="targetPoint" />
          </mxGeometry>
        </mxCell>
        <mxCell id="0IgKqHt7GOwVE6_uqxTF-33" value="" style="shape=table;startSize=0;container=1;collapsible=0;childLayout=tableLayout;fillColor=#1ba1e2;strokeColor=#006EAF;fontColor=#ffffff;strokeWidth=4;" vertex="1" parent="1">
          <mxGeometry x="544.5" y="645" width="130" height="119.75" as="geometry" />
        </mxCell>
        <mxCell id="0IgKqHt7GOwVE6_uqxTF-34" value="" style="shape=partialRectangle;collapsible=0;dropTarget=0;pointerEvents=0;fillColor=none;top=0;left=0;bottom=0;right=0;points=[[0,0.5],[1,0.5]];portConstraint=eastwest;" vertex="1" parent="0IgKqHt7GOwVE6_uqxTF-33">
          <mxGeometry width="130" height="40" as="geometry" />
        </mxCell>
        <mxCell id="0IgKqHt7GOwVE6_uqxTF-35" value="" style="shape=partialRectangle;html=1;whiteSpace=wrap;connectable=0;overflow=hidden;fillColor=none;top=0;left=0;bottom=0;right=0;" vertex="1" parent="0IgKqHt7GOwVE6_uqxTF-34">
          <mxGeometry width="43" height="40" as="geometry" />
        </mxCell>
        <mxCell id="0IgKqHt7GOwVE6_uqxTF-36" value="" style="shape=partialRectangle;html=1;whiteSpace=wrap;connectable=0;overflow=hidden;fillColor=none;top=0;left=0;bottom=0;right=0;" vertex="1" parent="0IgKqHt7GOwVE6_uqxTF-34">
          <mxGeometry x="43" width="44" height="40" as="geometry" />
        </mxCell>
        <mxCell id="0IgKqHt7GOwVE6_uqxTF-37" value="" style="shape=partialRectangle;html=1;whiteSpace=wrap;connectable=0;overflow=hidden;fillColor=none;top=0;left=0;bottom=0;right=0;" vertex="1" parent="0IgKqHt7GOwVE6_uqxTF-34">
          <mxGeometry x="87" width="43" height="40" as="geometry" />
        </mxCell>
        <mxCell id="0IgKqHt7GOwVE6_uqxTF-38" value="" style="shape=partialRectangle;collapsible=0;dropTarget=0;pointerEvents=0;fillColor=none;top=0;left=0;bottom=0;right=0;points=[[0,0.5],[1,0.5]];portConstraint=eastwest;" vertex="1" parent="0IgKqHt7GOwVE6_uqxTF-33">
          <mxGeometry y="40" width="130" height="40" as="geometry" />
        </mxCell>
        <mxCell id="0IgKqHt7GOwVE6_uqxTF-39" value="" style="shape=partialRectangle;html=1;whiteSpace=wrap;connectable=0;overflow=hidden;fillColor=none;top=0;left=0;bottom=0;right=0;" vertex="1" parent="0IgKqHt7GOwVE6_uqxTF-38">
          <mxGeometry width="43" height="40" as="geometry" />
        </mxCell>
        <mxCell id="0IgKqHt7GOwVE6_uqxTF-40" value="" style="shape=partialRectangle;html=1;whiteSpace=wrap;connectable=0;overflow=hidden;fillColor=none;top=0;left=0;bottom=0;right=0;" vertex="1" parent="0IgKqHt7GOwVE6_uqxTF-38">
          <mxGeometry x="43" width="44" height="40" as="geometry" />
        </mxCell>
        <mxCell id="0IgKqHt7GOwVE6_uqxTF-41" value="" style="shape=partialRectangle;html=1;whiteSpace=wrap;connectable=0;overflow=hidden;fillColor=none;top=0;left=0;bottom=0;right=0;" vertex="1" parent="0IgKqHt7GOwVE6_uqxTF-38">
          <mxGeometry x="87" width="43" height="40" as="geometry" />
        </mxCell>
        <mxCell id="0IgKqHt7GOwVE6_uqxTF-42" value="" style="shape=partialRectangle;collapsible=0;dropTarget=0;pointerEvents=0;fillColor=none;top=0;left=0;bottom=0;right=0;points=[[0,0.5],[1,0.5]];portConstraint=eastwest;" vertex="1" parent="0IgKqHt7GOwVE6_uqxTF-33">
          <mxGeometry y="80" width="130" height="40" as="geometry" />
        </mxCell>
        <mxCell id="0IgKqHt7GOwVE6_uqxTF-43" value="" style="shape=partialRectangle;html=1;whiteSpace=wrap;connectable=0;overflow=hidden;fillColor=none;top=0;left=0;bottom=0;right=0;" vertex="1" parent="0IgKqHt7GOwVE6_uqxTF-42">
          <mxGeometry width="43" height="40" as="geometry" />
        </mxCell>
        <mxCell id="0IgKqHt7GOwVE6_uqxTF-44" value="" style="shape=partialRectangle;html=1;whiteSpace=wrap;connectable=0;overflow=hidden;fillColor=none;top=0;left=0;bottom=0;right=0;" vertex="1" parent="0IgKqHt7GOwVE6_uqxTF-42">
          <mxGeometry x="43" width="44" height="40" as="geometry" />
        </mxCell>
        <mxCell id="0IgKqHt7GOwVE6_uqxTF-45" value="" style="shape=partialRectangle;html=1;whiteSpace=wrap;connectable=0;overflow=hidden;fillColor=none;top=0;left=0;bottom=0;right=0;" vertex="1" parent="0IgKqHt7GOwVE6_uqxTF-42">
          <mxGeometry x="87" width="43" height="40" as="geometry" />
        </mxCell>
        <mxCell id="0IgKqHt7GOwVE6_uqxTF-46" value="" style="ellipse;whiteSpace=wrap;html=1;aspect=fixed;strokeColor=#000000;strokeWidth=2;gradientColor=none;fillColor=#FF6666;" vertex="1" parent="1">
          <mxGeometry x="571.5" y="517" width="80" height="80" as="geometry" />
        </mxCell>
        <mxCell id="0IgKqHt7GOwVE6_uqxTF-47" value="" style="rounded=0;whiteSpace=wrap;html=1;dashed=1;strokeColor=#000000;strokeWidth=2;fillColor=none;gradientColor=none;" vertex="1" parent="1">
          <mxGeometry x="531" y="508" width="157" height="272" as="geometry" />
        </mxCell>
        <mxCell id="0IgKqHt7GOwVE6_uqxTF-48" value="" style="endArrow=classic;html=1;exitX=0.5;exitY=1;exitDx=0;exitDy=0;entryX=0.515;entryY=0;entryDx=0;entryDy=0;entryPerimeter=0;strokeWidth=2;" edge="1" parent="1" source="0IgKqHt7GOwVE6_uqxTF-46" target="0IgKqHt7GOwVE6_uqxTF-34">
          <mxGeometry width="50" height="50" relative="1" as="geometry">
            <mxPoint x="744.5" y="619" as="sourcePoint" />
            <mxPoint x="794.5" y="546" as="targetPoint" />
          </mxGeometry>
        </mxCell>
        <mxCell id="0IgKqHt7GOwVE6_uqxTF-50" value="" style="shape=table;startSize=0;container=1;collapsible=0;childLayout=tableLayout;fillColor=#1ba1e2;strokeColor=#006EAF;fontColor=#ffffff;strokeWidth=2;" vertex="1" parent="1">
          <mxGeometry x="727" y="568" width="45.5" height="38" as="geometry" />
        </mxCell>
        <mxCell id="0IgKqHt7GOwVE6_uqxTF-51" value="" style="shape=partialRectangle;collapsible=0;dropTarget=0;pointerEvents=0;fillColor=none;top=0;left=0;bottom=0;right=0;points=[[0,0.5],[1,0.5]];portConstraint=eastwest;" vertex="1" parent="0IgKqHt7GOwVE6_uqxTF-50">
          <mxGeometry width="45.5" height="12" as="geometry" />
        </mxCell>
        <mxCell id="0IgKqHt7GOwVE6_uqxTF-52" value="" style="shape=partialRectangle;html=1;whiteSpace=wrap;connectable=0;overflow=hidden;fillColor=none;top=0;left=0;bottom=0;right=0;" vertex="1" parent="0IgKqHt7GOwVE6_uqxTF-51">
          <mxGeometry width="15" height="12" as="geometry" />
        </mxCell>
        <mxCell id="0IgKqHt7GOwVE6_uqxTF-53" value="" style="shape=partialRectangle;html=1;whiteSpace=wrap;connectable=0;overflow=hidden;fillColor=none;top=0;left=0;bottom=0;right=0;" vertex="1" parent="0IgKqHt7GOwVE6_uqxTF-51">
          <mxGeometry x="15" width="15" height="12" as="geometry" />
        </mxCell>
        <mxCell id="0IgKqHt7GOwVE6_uqxTF-54" value="" style="shape=partialRectangle;html=1;whiteSpace=wrap;connectable=0;overflow=hidden;fillColor=none;top=0;left=0;bottom=0;right=0;" vertex="1" parent="0IgKqHt7GOwVE6_uqxTF-51">
          <mxGeometry x="30" width="16" height="12" as="geometry" />
        </mxCell>
        <mxCell id="0IgKqHt7GOwVE6_uqxTF-55" value="" style="shape=partialRectangle;collapsible=0;dropTarget=0;pointerEvents=0;fillColor=none;top=0;left=0;bottom=0;right=0;points=[[0,0.5],[1,0.5]];portConstraint=eastwest;" vertex="1" parent="0IgKqHt7GOwVE6_uqxTF-50">
          <mxGeometry y="12" width="45.5" height="14" as="geometry" />
        </mxCell>
        <mxCell id="0IgKqHt7GOwVE6_uqxTF-56" value="" style="shape=partialRectangle;html=1;whiteSpace=wrap;connectable=0;overflow=hidden;fillColor=none;top=0;left=0;bottom=0;right=0;" vertex="1" parent="0IgKqHt7GOwVE6_uqxTF-55">
          <mxGeometry width="15" height="14" as="geometry" />
        </mxCell>
        <mxCell id="0IgKqHt7GOwVE6_uqxTF-57" value="" style="shape=partialRectangle;html=1;whiteSpace=wrap;connectable=0;overflow=hidden;fillColor=none;top=0;left=0;bottom=0;right=0;" vertex="1" parent="0IgKqHt7GOwVE6_uqxTF-55">
          <mxGeometry x="15" width="15" height="14" as="geometry" />
        </mxCell>
        <mxCell id="0IgKqHt7GOwVE6_uqxTF-58" value="" style="shape=partialRectangle;html=1;whiteSpace=wrap;connectable=0;overflow=hidden;fillColor=none;top=0;left=0;bottom=0;right=0;" vertex="1" parent="0IgKqHt7GOwVE6_uqxTF-55">
          <mxGeometry x="30" width="16" height="14" as="geometry" />
        </mxCell>
        <mxCell id="0IgKqHt7GOwVE6_uqxTF-59" value="" style="shape=partialRectangle;collapsible=0;dropTarget=0;pointerEvents=0;fillColor=none;top=0;left=0;bottom=0;right=0;points=[[0,0.5],[1,0.5]];portConstraint=eastwest;" vertex="1" parent="0IgKqHt7GOwVE6_uqxTF-50">
          <mxGeometry y="26" width="45.5" height="12" as="geometry" />
        </mxCell>
        <mxCell id="0IgKqHt7GOwVE6_uqxTF-60" value="" style="shape=partialRectangle;html=1;whiteSpace=wrap;connectable=0;overflow=hidden;fillColor=none;top=0;left=0;bottom=0;right=0;" vertex="1" parent="0IgKqHt7GOwVE6_uqxTF-59">
          <mxGeometry width="15" height="12" as="geometry" />
        </mxCell>
        <mxCell id="0IgKqHt7GOwVE6_uqxTF-61" value="" style="shape=partialRectangle;html=1;whiteSpace=wrap;connectable=0;overflow=hidden;fillColor=none;top=0;left=0;bottom=0;right=0;" vertex="1" parent="0IgKqHt7GOwVE6_uqxTF-59">
          <mxGeometry x="15" width="15" height="12" as="geometry" />
        </mxCell>
        <mxCell id="0IgKqHt7GOwVE6_uqxTF-62" value="" style="shape=partialRectangle;html=1;whiteSpace=wrap;connectable=0;overflow=hidden;fillColor=none;top=0;left=0;bottom=0;right=0;" vertex="1" parent="0IgKqHt7GOwVE6_uqxTF-59">
          <mxGeometry x="30" width="16" height="12" as="geometry" />
        </mxCell>
        <mxCell id="0IgKqHt7GOwVE6_uqxTF-63" value="" style="ellipse;whiteSpace=wrap;html=1;aspect=fixed;strokeColor=#000000;strokeWidth=2;gradientColor=none;fillColor=#FF6666;" vertex="1" parent="1">
          <mxGeometry x="727" y="507" width="36" height="36" as="geometry" />
        </mxCell>
        <mxCell id="0IgKqHt7GOwVE6_uqxTF-66" value="缓存" style="text;html=1;strokeColor=none;fillColor=none;align=center;verticalAlign=middle;whiteSpace=wrap;rounded=0;fontSize=16;" vertex="1" parent="1">
          <mxGeometry x="763" y="515" width="40" height="20" as="geometry" />
        </mxCell>
        <mxCell id="0IgKqHt7GOwVE6_uqxTF-67" value="集群" style="text;html=1;strokeColor=none;fillColor=none;align=center;verticalAlign=middle;whiteSpace=wrap;rounded=0;fontSize=16;" vertex="1" parent="1">
          <mxGeometry x="772.75" y="577" width="40" height="20" as="geometry" />
        </mxCell>
        <mxCell id="0IgKqHt7GOwVE6_uqxTF-68" value="机房" style="text;html=1;strokeColor=none;fillColor=none;align=center;verticalAlign=middle;whiteSpace=wrap;rounded=0;fontSize=18;" vertex="1" parent="1">
          <mxGeometry x="129.5" y="509" width="59" height="34" as="geometry" />
        </mxCell>
        <mxCell id="0IgKqHt7GOwVE6_uqxTF-69" value="路由服务器" style="rounded=0;whiteSpace=wrap;html=1;fontSize=21;strokeWidth=2;fillColor=#fad7ac;strokeColor=#b46504;" vertex="1" parent="1">
          <mxGeometry x="188.5" y="372" width="503.5" height="60" as="geometry" />
        </mxCell>
        <mxCell id="0IgKqHt7GOwVE6_uqxTF-71" value="用户" style="rounded=0;whiteSpace=wrap;html=1;fontSize=21;strokeWidth=2;fillColor=#fad9d5;strokeColor=#ae4132;" vertex="1" parent="1">
          <mxGeometry x="182.5" y="249" width="120" height="60" as="geometry" />
        </mxCell>
        <mxCell id="0IgKqHt7GOwVE6_uqxTF-72" value="用户" style="rounded=0;whiteSpace=wrap;html=1;fontSize=21;strokeWidth=2;fillColor=#fad9d5;strokeColor=#ae4132;" vertex="1" parent="1">
          <mxGeometry x="317.5" y="249" width="120" height="60" as="geometry" />
        </mxCell>
        <mxCell id="0IgKqHt7GOwVE6_uqxTF-73" value="用户" style="rounded=0;whiteSpace=wrap;html=1;fontSize=21;strokeWidth=2;fillColor=#fad9d5;strokeColor=#ae4132;" vertex="1" parent="1">
          <mxGeometry x="452.5" y="249" width="120" height="60" as="geometry" />
        </mxCell>
        <mxCell id="0IgKqHt7GOwVE6_uqxTF-74" value="用户" style="rounded=0;whiteSpace=wrap;html=1;fontSize=21;strokeWidth=2;fillColor=#fad9d5;strokeColor=#ae4132;" vertex="1" parent="1">
          <mxGeometry x="587.5" y="249" width="120" height="60" as="geometry" />
        </mxCell>
        <mxCell id="0IgKqHt7GOwVE6_uqxTF-76" value="" style="shape=cylinder3;whiteSpace=wrap;html=1;boundedLbl=1;backgroundOutline=1;size=15;fontSize=21;strokeWidth=2;fillColor=#b1ddf0;strokeColor=#10739e;" vertex="1" parent="1">
          <mxGeometry x="291" y="855" width="91" height="80" as="geometry" />
        </mxCell>
        <mxCell id="0IgKqHt7GOwVE6_uqxTF-78" value="" style="shape=cylinder3;whiteSpace=wrap;html=1;boundedLbl=1;backgroundOutline=1;size=15;fontSize=21;strokeWidth=2;fillColor=#b1ddf0;strokeColor=#10739e;" vertex="1" parent="1">
          <mxGeometry x="397" y="855" width="91" height="80" as="geometry" />
        </mxCell>
        <mxCell id="0IgKqHt7GOwVE6_uqxTF-79" value="" style="shape=cylinder3;whiteSpace=wrap;html=1;boundedLbl=1;backgroundOutline=1;size=15;fontSize=21;strokeWidth=2;fillColor=#b1ddf0;strokeColor=#10739e;" vertex="1" parent="1">
          <mxGeometry x="503" y="855" width="91" height="80" as="geometry" />
        </mxCell>
        <mxCell id="0IgKqHt7GOwVE6_uqxTF-81" value="" style="shape=cylinder3;whiteSpace=wrap;html=1;boundedLbl=1;backgroundOutline=1;size=15;fontSize=21;strokeWidth=2;fillColor=#b1ddf0;strokeColor=#10739e;" vertex="1" parent="1">
          <mxGeometry x="289" y="941" width="91" height="80" as="geometry" />
        </mxCell>
        <mxCell id="0IgKqHt7GOwVE6_uqxTF-82" value="" style="shape=cylinder3;whiteSpace=wrap;html=1;boundedLbl=1;backgroundOutline=1;size=15;fontSize=21;strokeWidth=2;fillColor=#b1ddf0;strokeColor=#10739e;" vertex="1" parent="1">
          <mxGeometry x="395" y="941" width="91" height="80" as="geometry" />
        </mxCell>
        <mxCell id="0IgKqHt7GOwVE6_uqxTF-83" value="" style="shape=cylinder3;whiteSpace=wrap;html=1;boundedLbl=1;backgroundOutline=1;size=15;fontSize=21;strokeWidth=2;fillColor=#b1ddf0;strokeColor=#10739e;" vertex="1" parent="1">
          <mxGeometry x="501" y="941" width="91" height="80" as="geometry" />
        </mxCell>
        <mxCell id="0IgKqHt7GOwVE6_uqxTF-84" value="" style="rounded=0;whiteSpace=wrap;html=1;dashed=1;strokeColor=#000000;strokeWidth=2;fillColor=none;gradientColor=none;" vertex="1" parent="1">
          <mxGeometry x="278" y="841" width="332" height="195" as="geometry" />
        </mxCell>
        <mxCell id="0IgKqHt7GOwVE6_uqxTF-85" value="数据库" style="text;html=1;strokeColor=none;fillColor=none;align=center;verticalAlign=middle;whiteSpace=wrap;rounded=0;fontSize=18;" vertex="1" parent="1">
          <mxGeometry x="211" y="841" width="59" height="34" as="geometry" />
        </mxCell>
        <mxCell id="0IgKqHt7GOwVE6_uqxTF-86" value="" style="whiteSpace=wrap;html=1;aspect=fixed;fontSize=21;strokeWidth=2;strokeColor=#006EAF;fontColor=#ffffff;fillColor=#1ba1e2;" vertex="1" parent="1">
          <mxGeometry x="727" y="631" width="26" height="26" as="geometry" />
        </mxCell>
        <mxCell id="0IgKqHt7GOwVE6_uqxTF-87" value="机器" style="text;html=1;strokeColor=none;fillColor=none;align=center;verticalAlign=middle;whiteSpace=wrap;rounded=0;fontSize=16;" vertex="1" parent="1">
          <mxGeometry x="772.5" y="634" width="40" height="20" as="geometry" />
        </mxCell>
        <mxCell id="0IgKqHt7GOwVE6_uqxTF-89" value="" style="shape=flexArrow;endArrow=classic;html=1;fontSize=21;strokeColor=#b85450;fillColor=#f8cecc;" edge="1" parent="1">
          <mxGeometry width="50" height="50" relative="1" as="geometry">
            <mxPoint x="446" y="318" as="sourcePoint" />
            <mxPoint x="446" y="369" as="targetPoint" />
          </mxGeometry>
        </mxCell>
        <mxCell id="0IgKqHt7GOwVE6_uqxTF-91" value="" style="shape=flexArrow;endArrow=classic;html=1;fontSize=21;strokeColor=#b85450;fillColor=#f8cecc;" edge="1" parent="1">
          <mxGeometry width="50" height="50" relative="1" as="geometry">
            <mxPoint x="443.23000000000025" y="445" as="sourcePoint" />
            <mxPoint x="443.23000000000025" y="496" as="targetPoint" />
          </mxGeometry>
        </mxCell>
        <mxCell id="0IgKqHt7GOwVE6_uqxTF-92" value="" style="shape=flexArrow;endArrow=classic;html=1;fontSize=21;strokeColor=#b85450;fillColor=#f8cecc;" edge="1" parent="1">
          <mxGeometry width="50" height="50" relative="1" as="geometry">
            <mxPoint x="437.7300000000005" y="784" as="sourcePoint" />
            <mxPoint x="437.7300000000005" y="835" as="targetPoint" />
          </mxGeometry>
        </mxCell>
      </root>
    </mxGraphModel>
  </diagram>
</mxfile>
